<?xml version="1.0" encoding="UTF-8"?>
<svg width="723px" height="427px" viewBox="0 0 723 427" version="1.1" xmlns="http://www.w3.org/2000/svg" xmlns:xlink="http://www.w3.org/1999/xlink" style="background: #FFFFFF;">
    <!-- Generator: Sketch 49 (51002) - http://www.bohemiancoding.com/sketch -->
    <title>noia-app-disconnected</title>
    <desc>Created with Sketch.</desc>
    <defs>
        <linearGradient x1="87.4163735%" y1="44.9201436%" x2="-3.10395626%" y2="83.2733811%" id="linearGradient-1">
            <stop stop-color="#A0F1B3" offset="0%"></stop>
            <stop stop-color="#232AA2" offset="100%"></stop>
        </linearGradient>
        <linearGradient x1="104.183916%" y1="0%" x2="5.01337158%" y2="94.9061557%" id="linearGradient-2">
            <stop stop-color="#D3D5F5" offset="0%"></stop>
            <stop stop-color="#3036A8" offset="100%"></stop>
        </linearGradient>
        <rect id="path-3" x="363" y="350" width="330" height="47" rx="4"></rect>
        <filter x="-7.7%" y="-35.1%" width="115.5%" height="208.5%" filterUnits="objectBoundingBox" id="filter-4">
            <feOffset dx="0" dy="9" in="SourceAlpha" result="shadowOffsetOuter1"></feOffset>
            <feGaussianBlur stdDeviation="7" in="shadowOffsetOuter1" result="shadowBlurOuter1"></feGaussianBlur>
            <feColorMatrix values="0 0 0 0 0.298039216   0 0 0 0 0.850980392   0 0 0 0 0.392156863  0 0 0 0.307206748 0" type="matrix" in="shadowBlurOuter1"></feColorMatrix>
        </filter>
    </defs>
    <g id="noia-app-disconnected" stroke="none" stroke-width="1" fill="none" fill-rule="evenodd">
        <polygon id="Rectangle-2" fill="#3940BB" points="0 0 122 0 122 427 0 427"></polygon>
        <polygon id="Rectangle-2-Copy" fill="#232664" points="121 0 333 0 333 427 121 427"></polygon>
        <polygon id="Rectangle-2-Copy-2" fill="#232664" points="121 0 333 0 333 96 121 96"></polygon>
        <g id="Page-1" transform="translate(39.000000, 364.000000)" fill="#FFFFFF">
            <g id="Group-40" transform="translate(0.000000, 0.958300)">
                <polygon id="Fill-7" points="1.88330298 29.2338976 2.80109196 29.2338976 2.80109196 15.1802539 1.88330298 15.1802539"></polygon>
                <polygon id="Fill-8" points="41.6543117 16.671661 42.5721007 16.671661 42.5721007 2.39315892 41.6543117 2.39315892"></polygon>
                <polygon id="Fill-9" points="21.9025751 22.7584375 36.2430279 22.7584375 36.2430279 21.8406485 21.9025751 21.8406485"></polygon>
                <polygon id="Fill-10" points="2.34219747 22.7584375 9.56978568 22.7584375 9.56978568 21.8406485 2.34219747 21.8406485"></polygon>
                <polygon id="Fill-11" points="2.34219747 16.1301655 42.1132062 16.1301655 42.1132062 15.2123765 2.34219747 15.2123765"></polygon>
                <polygon id="Fill-12" points="35.2678771 9.50143456 42.1132062 9.50143456 42.1132062 8.58364558 35.2678771 8.58364558"></polygon>
                <polygon id="Fill-13" points="8.88144394 9.50143456 23.7955148 9.50143456 23.7955148 8.58364558 8.88144394 8.58364558"></polygon>
                <polygon id="Fill-14" points="35.0255808 22.6372893 35.9433698 22.6372893 35.9433698 7.89530385 35.0255808 7.89530385"></polygon>
                <polygon id="Fill-15" points="28.3973088 28.927815 29.3150978 28.927815 29.3150978 14.7787212 28.3973088 14.7787212"></polygon>
                <polygon id="Fill-16" points="21.7690368 23.2682692 22.6868258 23.2682692 22.6868258 8.35419833 21.7690368 8.35419833"></polygon>
                <polygon id="Fill-17" points="15.1403059 16.040681 16.0580949 16.040681 16.0580949 1.24133375 15.1403059 1.24133375"></polygon>
                <polygon id="Fill-18" points="8.51203388 23.1250942 9.42982286 23.1250942 9.42982286 8.29683652 8.51203388 8.29683652"></polygon>
                <path d="M4.70376029,22.2549843 C4.70376029,20.955854 3.65059744,19.9031501 2.35192604,19.9031501 C1.05279574,19.9031501 9.17788978e-05,20.955854 9.17788978e-05,22.2549843 C9.17788978e-05,23.5541146 1.05279574,24.6068186 2.35192604,24.6068186 C3.65059744,24.6068186 4.70376029,23.5541146 4.70376029,22.2549843" id="Fill-19"></path>
                <path d="M11.3306097,22.2549843 C11.3306097,20.955854 10.2779058,19.9031501 8.97877546,19.9031501 C7.67964517,19.9031501 6.62694121,20.955854 6.62694121,22.2549843 C6.62694121,23.5541146 7.67964517,24.6068186 8.97877546,24.6068186 C10.2779058,24.6068186 11.3306097,23.5541146 11.3306097,22.2549843" id="Fill-20"></path>
                <path d="M24.5843545,22.2549843 C24.5843545,20.955854 23.5316505,19.9031501 22.2325202,19.9031501 C20.9338488,19.9031501 19.880686,20.955854 19.880686,22.2549843 C19.880686,23.5541146 20.9338488,24.6068186 22.2325202,24.6068186 C23.5316505,24.6068186 24.5843545,23.5541146 24.5843545,22.2549843" id="Fill-21"></path>
                <path d="M31.2114333,22.2549843 C31.2114333,20.955854 30.1587294,19.9031501 28.8595991,19.9031501 C27.5604688,19.9031501 26.5077648,20.955854 26.5077648,22.2549843 C26.5077648,23.5541146 27.5604688,24.6068186 28.8595991,24.6068186 C30.1587294,24.6068186 31.2114333,23.5541146 31.2114333,22.2549843" id="Fill-22"></path>
                <path d="M37.8382828,22.2549843 C37.8382828,20.955854 36.7855788,19.9031501 35.4864485,19.9031501 C34.1873182,19.9031501 33.1346143,20.955854 33.1346143,22.2549843 C33.1346143,23.5541146 34.1873182,24.6068186 35.4864485,24.6068186 C36.7855788,24.6068186 37.8382828,23.5541146 37.8382828,22.2549843" id="Fill-23"></path>
                <path d="M4.70376029,28.8755469 C4.70376029,27.5764166 3.65059744,26.5237126 2.35192604,26.5237126 C1.05279574,26.5237126 9.17788978e-05,27.5764166 9.17788978e-05,28.8755469 C9.17788978e-05,30.1746772 1.05279574,31.2273811 2.35192604,31.2273811 C3.65059744,31.2273811 4.70376029,30.1746772 4.70376029,28.8755469" id="Fill-24"></path>
                <path d="M31.2114333,28.8755469 C31.2114333,27.5764166 30.1587294,26.5237126 28.8595991,26.5237126 C27.5604688,26.5237126 26.5077648,27.5764166 26.5077648,28.8755469 C26.5077648,30.1746772 27.5604688,31.2273811 28.8595991,31.2273811 C30.1587294,31.2273811 31.2114333,30.1746772 31.2114333,28.8755469" id="Fill-25"></path>
                <path d="M4.70376029,15.6343758 C4.70376029,14.3357044 3.65059744,13.2825416 2.35192604,13.2825416 C1.05279574,13.2825416 9.17788978e-05,14.3357044 9.17788978e-05,15.6343758 C9.17788978e-05,16.9335061 1.05279574,17.9862101 2.35192604,17.9862101 C3.65059744,17.9862101 4.70376029,16.9335061 4.70376029,15.6343758" id="Fill-26"></path>
                <path d="M11.3306097,15.6343758 C11.3306097,14.3357044 10.2779058,13.2825416 8.97877546,13.2825416 C7.67964517,13.2825416 6.62694121,14.3357044 6.62694121,15.6343758 C6.62694121,16.9335061 7.67964517,17.9862101 8.97877546,17.9862101 C10.2779058,17.9862101 11.3306097,16.9335061 11.3306097,15.6343758" id="Fill-27"></path>
                <path d="M17.957505,15.6343758 C17.957505,14.3357044 16.9048011,13.2825416 15.6056708,13.2825416 C14.3065405,13.2825416 13.2538365,14.3357044 13.2538365,15.6343758 C13.2538365,16.9335061 14.3065405,17.9862101 15.6056708,17.9862101 C16.9048011,17.9862101 17.957505,16.9335061 17.957505,15.6343758" id="Fill-28"></path>
                <path d="M24.5843545,15.6343758 C24.5843545,14.3357044 23.5316505,13.2825416 22.2325202,13.2825416 C20.9338488,13.2825416 19.880686,14.3357044 19.880686,15.6343758 C19.880686,16.9335061 20.9338488,17.9862101 22.2325202,17.9862101 C23.5316505,17.9862101 24.5843545,16.9335061 24.5843545,15.6343758" id="Fill-29"></path>
                <path d="M31.2114333,15.6343758 C31.2114333,14.3357044 30.1587294,13.2825416 28.8595991,13.2825416 C27.5604688,13.2825416 26.5077648,14.3357044 26.5077648,15.6343758 C26.5077648,16.9335061 27.5604688,17.9862101 28.8595991,17.9862101 C30.1587294,17.9862101 31.2114333,16.9335061 31.2114333,15.6343758" id="Fill-30"></path>
                <path d="M37.8382828,15.6343758 C37.8382828,14.3357044 36.7855788,13.2825416 35.4864485,13.2825416 C34.1873182,13.2825416 33.1346143,14.3357044 33.1346143,15.6343758 C33.1346143,16.9335061 34.1873182,17.9862101 35.4864485,17.9862101 C36.7855788,17.9862101 37.8382828,16.9335061 37.8382828,15.6343758" id="Fill-31"></path>
                <path d="M44.4651322,15.6343758 C44.4651322,14.3357044 43.4124282,13.2825416 42.1132979,13.2825416 C40.8146265,13.2825416 39.7614637,14.3357044 39.7614637,15.6343758 C39.7614637,16.9335061 40.8146265,17.9862101 42.1132979,17.9862101 C43.4124282,17.9862101 44.4651322,16.9335061 44.4651322,15.6343758" id="Fill-32"></path>
                <path d="M11.3306097,9.01404272 C11.3306097,7.71491242 10.2779058,6.66220846 8.97877546,6.66220846 C7.67964517,6.66220846 6.62694121,7.71491242 6.62694121,9.01404272 C6.62694121,10.313173 7.67964517,11.365877 8.97877546,11.365877 C10.2779058,11.365877 11.3306097,10.313173 11.3306097,9.01404272" id="Fill-33"></path>
                <path d="M17.957505,9.01404272 C17.957505,7.71491242 16.9048011,6.66220846 15.6056708,6.66220846 C14.3065405,6.66220846 13.2538365,7.71491242 13.2538365,9.01404272 C13.2538365,10.313173 14.3065405,11.365877 15.6056708,11.365877 C16.9048011,11.365877 17.957505,10.313173 17.957505,9.01404272" id="Fill-34"></path>
                <path d="M24.5843545,9.01404272 C24.5843545,7.71491242 23.5316505,6.66220846 22.2325202,6.66220846 C20.9338488,6.66220846 19.880686,7.71491242 19.880686,9.01404272 C19.880686,10.313173 20.9338488,11.365877 22.2325202,11.365877 C23.5316505,11.365877 24.5843545,10.313173 24.5843545,9.01404272" id="Fill-35"></path>
                <path d="M37.8382828,9.01404272 C37.8382828,7.71491242 36.7855788,6.66220846 35.4864485,6.66220846 C34.1873182,6.66220846 33.1346143,7.71491242 33.1346143,9.01404272 C33.1346143,10.313173 34.1873182,11.365877 35.4864485,11.365877 C36.7855788,11.365877 37.8382828,10.313173 37.8382828,9.01404272" id="Fill-36"></path>
                <path d="M44.4651322,9.01404272 C44.4651322,7.71491242 43.4124282,6.66220846 42.1132979,6.66220846 C40.8146265,6.66220846 39.7614637,7.71491242 39.7614637,9.01404272 C39.7614637,10.313173 40.8146265,11.365877 42.1132979,11.365877 C43.4124282,11.365877 44.4651322,10.313173 44.4651322,9.01404272" id="Fill-37"></path>
                <path d="M17.957505,2.39343426 C17.957505,1.09430396 16.9048011,0.0416 15.6056708,0.0416 C14.3065405,0.0416 13.2538365,1.09430396 13.2538365,2.39343426 C13.2538365,3.69256456 14.3065405,4.74526851 15.6056708,4.74526851 C16.9048011,4.74526851 17.957505,3.69256456 17.957505,2.39343426" id="Fill-38"></path>
                <path d="M44.4651322,2.39343426 C44.4651322,1.09430396 43.4124282,0.0416 42.1132979,0.0416 C40.8146265,0.0416 39.7614637,1.09430396 39.7614637,2.39343426 C39.7614637,3.69256456 40.8146265,4.74526851 42.1132979,4.74526851 C43.4124282,4.74526851 44.4651322,3.69256456 44.4651322,2.39343426" id="Fill-39"></path>
            </g>
        </g>
        <text id="Wallet" opacity="0.600000024" font-family="Ubuntu-Medium, Ubuntu" font-size="16" font-weight="400" fill="#FFFFFF">
            <tspan x="30" y="87">Wallet</tspan>
        </text>
        <text id="Node" font-family="Ubuntu-Medium, Ubuntu" font-size="16" font-weight="400" fill="#FFFFFF">
            <tspan x="30" y="45">Node</tspan>
        </text>
        <text id="Settings" opacity="0.600000024" font-family="Ubuntu-Medium, Ubuntu" font-size="16" font-weight="400" fill="#FFFFFF">
            <tspan x="30" y="129">Settings</tspan>
        </text>
        <g id="Group-2" transform="translate(151.000000, 27.000000)">
            <text id="Available-storage" font-family="Roboto-Regular, Roboto" font-size="14" font-weight="normal" fill="#FFFFFF">
                <tspan x="0" y="15">Available storage</tspan>
            </text>
            <rect id="Rectangle" fill="#FFFFFF" opacity="0.219999999" x="0" y="29" width="118" height="4" rx="2"></rect>
            <path d="M2,29 L48,29 L48,33 L2,33 C0.8954305,33 1.3527075e-16,32.1045695 0,31 L0,31 C-1.3527075e-16,29.8954305 0.8954305,29 2,29 Z" id="Rectangle-Copy" fill="#49D065"></path>
            <text id="1" font-family="Roboto-Bold, Roboto" font-size="12" font-weight="bold" fill="#FFFFFF">
                <tspan x="127" y="36">1</tspan>
            </text>
            <text id="TB-Copy" opacity="0.600000024" font-family="Roboto-Regular, Roboto" font-size="12" font-weight="normal" fill="#FFFFFF">
                <tspan x="138" y="36">TB</tspan>
            </text>
        </g>
        <text id="Cached-data" font-family="RobotoMono-Regular, Roboto Mono" font-size="12" font-weight="normal" fill="#A1A4C5">
            <tspan x="151" y="176">Cached data</tspan>
        </text>
        <text id="Total-data-downloade" font-family="RobotoMono-Regular, Roboto Mono" font-size="12" font-weight="normal" fill="#A1A4C5">
            <tspan x="151" y="285">Total data downloaded</tspan>
        </text>
        <text id="985" font-family="Roboto-Light, Roboto" font-size="28" font-weight="300" fill="#FFFFFF">
            <tspan x="151" y="264">985</tspan>
        </text>
        <text id="2" font-family="Roboto-Light, Roboto" font-size="28" font-weight="300" fill="#FFFFFF">
            <tspan x="151" y="155">2</tspan>
        </text>
        <text id="MB" opacity="0.600000024" font-family="Roboto-Regular, Roboto" font-size="14" font-weight="normal" fill="#FFFFFF">
            <tspan x="204" y="264">MB</tspan>
        </text>
        <text id="TB" opacity="0.600000024" font-family="Roboto-Regular, Roboto" font-size="14" font-weight="normal" fill="#FFFFFF">
            <tspan x="172" y="155">TB</tspan>
        </text>
        <text id="Total-data-uploaded" font-family="RobotoMono-Regular, Roboto Mono" font-size="12" font-weight="normal" fill="#A1A4C5">
            <tspan x="151" y="394">Total data uploaded</tspan>
        </text>
        <text id="821" font-family="Roboto-Light, Roboto" font-size="28" font-weight="300" fill="#FFFFFF">
            <tspan x="151" y="373">821</tspan>
        </text>
        <text id="TB" opacity="0.600000024" font-family="Roboto-Regular, Roboto" font-size="14" font-weight="normal" fill="#FFFFFF">
            <tspan x="204" y="373">TB</tspan>
        </text>
        <polygon id="Rectangle-4-Copy-3" fill="#FFFFFF" opacity="0.109999999" points="121 209 332 209 332 210 121 210"></polygon>
        <polygon id="Rectangle-4-Copy-5" fill="#FFFFFF" opacity="0.109999999" points="121 95 332 95 332 96 121 96"></polygon>
        <polygon id="Rectangle-4-Copy-4" fill="#FFFFFF" opacity="0.109999999" points="121 318 332 318 332 319 121 319"></polygon>
        <g id="Group-5" transform="translate(363.000000, 132.000000)">
            <text id="Download-speed" font-family="RobotoMono-Regular, Roboto Mono" font-size="12" font-weight="normal" fill="#7B7C96">
                <tspan x="25" y="154">Download speed</tspan>
            </text>
            <g id="Group" transform="translate(47.000000, 105.000000)">
                <text id="0" font-family="Roboto-Light, Roboto" font-size="27" font-weight="300" fill="#232AA2">
                    <tspan x="0.129394531" y="28">0</tspan>
                </text>
                <text id="Mbps" font-family="Roboto-Regular, Roboto" font-size="14" font-weight="normal" fill="#797CB6">
                    <tspan x="21" y="28">Mbps</tspan>
                </text>
            </g>
            <g id="Group-3">
                <g id="Group-4" fill="url(#linearGradient-1)">
                    <g id="Rectangle-4">
                        <path d="M75.7074665,9.00031676 C75.6383357,9.00010564 75.5691802,9 75.5,9 C75.0579307,9 74.6168688,9.00431355 74.1768542,9.01290086 L74.1768542,6.10622664e-16 L75.7074665,6.10622664e-16 L75.7074665,9.00031676 Z M82.420112,9.35571853 C81.9136669,9.30335449 81.4055349,9.25667417 80.8957808,9.21574243 L81.8316734,0.311318748 L83.3539008,0.471311294 L82.420112,9.35571853 Z M89.0702421,10.3856843 C88.5714522,10.2822671 88.0706167,10.1844369 87.5678039,10.0922619 L89.4149639,1.4020572 L90.9121286,1.72028938 L89.0702421,10.3856843 Z M95.4229968,12.0359103 C94.9368086,11.8834366 94.4482164,11.7363955 93.9572914,11.5948582 L96.5314396,3.1751988 L97.9951713,3.62270651 L95.4229968,12.0359103 Z M101.746065,14.3799682 C101.277792,14.1786169 100.806742,13.9824896 100.33299,13.7916597 L103.746418,5.75012817 L105.155354,6.34818602 L101.746065,14.3799682 Z M107.803996,17.3595731 C107.358504,17.1115187 106.909864,16.868436 106.458151,16.6304 L110.661224,9.04785556 L111.999928,9.7899111 L107.803996,17.3595731 Z M113.53403,20.9433006 C113.115878,20.6512428 112.694211,20.3638697 112.269107,20.0812573 L117.203654,13.033994 L118.457458,13.9119172 L113.53403,20.9433006 Z M118.877497,25.0937082 C118.490934,24.7607463 118.100499,24.4321553 117.706269,24.1080121 L123.305385,17.666965 L124.460553,18.671137 L118.877497,25.0937082 Z M123.655614,29.6382158 C123.303672,29.2687833 122.947522,28.9033953 122.587242,28.5421288 L128.66775,22.6702512 L129.731002,23.7712815 L123.655614,29.6382158 Z M128.07785,34.7785467 C127.76506,34.3752711 127.447732,33.975691 127.125944,33.5798828 L133.727328,28.4223164 L134.669667,29.6284553 L128.07785,34.7785467 Z M131.960506,40.3481034 C131.690281,39.9149889 131.415211,39.485209 131.135371,39.0588397 L138.173751,34.6607718 L138.984852,35.9588046 L131.960506,40.3481034 Z M135.401056,46.5839004 C135.178716,46.1241575 134.951238,45.6673629 134.718698,45.2135912 L142.28959,41.6242948 L142.960566,43 L135.401056,46.5839004 Z M137.933714,52.5503556 C137.757418,52.0709012 137.575758,51.5940393 137.388805,51.1198428 L145.048204,48.3320493 L145.571705,49.7703544 L137.933714,52.5503556 Z M139.905529,58.8772121 C139.778181,58.3823617 139.645281,57.8897403 139.506899,57.3994183 L147.309532,55.308709 L147.705683,56.7871669 L139.905529,58.8772121 Z M141.262023,65.5593866 C141.186248,65.0538381 141.104781,64.5501513 141.017692,64.0483933 L148.94294,62.7931574 L149.18238,64.3049252 L141.262023,65.5593866 Z M141.926756,72.3509807 C141.90294,71.8400978 141.873359,71.3307215 141.838077,70.8229154 L149.804215,70.4054278 L149.884321,71.9339424 L141.926756,72.3509807 Z M141.899882,79.1803237 C141.927606,78.6720723 141.949622,78.1623017 141.965868,77.6510749 L149.884321,78.0660576 L149.804215,79.5945722 L141.899882,79.1803237 Z M141.179349,85.9772106 C141.258954,85.4742123 141.33292,84.9693378 141.40118,84.4626538 L149.18238,85.6950748 L148.94294,87.2068426 L141.179349,85.9772106 Z M139.762454,92.6690577 C139.893648,92.1767505 140.019335,91.6821966 140.139445,91.1854658 L147.705683,93.2128331 L147.309532,94.691291 L139.762454,92.6690577 Z M137.727295,99.0033577 C137.907451,98.5266243 138.082286,98.0472781 138.251726,97.5653915 L145.571705,100.229646 L145.048204,101.667951 L137.727295,99.0033577 Z M134.97845,105.274077 C135.207014,104.818376 135.430494,104.359683 135.648817,103.898075 L142.631542,107.303777 L141.960566,108.679483 L134.97845,105.274077 Z M131.960397,110.652071 C132.230272,110.21952 132.495315,109.783643 132.75545,109.344515 L138.984852,113.041195 L138.173751,114.339228 L131.960397,110.652071 Z M17.9564568,108.853405 C18.212811,109.294731 18.4740966,109.732838 18.7402383,110.16765 L11.7105695,114.339228 L10.8994686,113.041195 L17.9564568,108.853405 Z M15.1436847,103.455125 C15.3586013,103.918359 15.578694,104.378704 15.8038883,104.836085 L7.92375474,108.679483 L7.25277849,107.303777 L15.1436847,103.455125 Z M12.6227269,97.2050127 C12.7893837,97.6878873 12.9614461,98.1682425 13.1388419,98.6460057 L4.83611637,101.667951 L4.31261615,100.229646 L12.6227269,97.2050127 Z M10.793278,90.9045471 C10.9112243,91.4018402 11.0347549,91.896972 11.1637999,92.3898724 L2.57478895,94.691291 L2.17863735,93.2128331 L10.793278,90.9045471 Z M9.57573778,84.2896033 C9.64267034,84.796488 9.715312,85.3015723 9.79359604,85.8047895 L0.941380957,87.2068426 L0.701940449,85.6950748 L9.57573778,84.2896033 Z M9.03230226,77.5927 C9.0481065,78.1039572 9.06968147,78.6137611 9.09696423,79.1220486 L0.0801060555,79.5945722 L4.16333634e-16,78.0660576 L9.0323021,77.5926947 Z M9.15790084,70.8811748 C9.12306169,71.3890012 9.0939239,71.8983947 9.07055099,72.4092918 L1.42108547e-14,71.9339424 L0.0801060555,70.4054278 L9.15790084,70.8811748 Z M9.95268508,64.2204077 C9.86691868,64.7223851 9.78677845,65.2262819 9.71233161,65.732031 L0.701940449,64.3049252 L0.941380957,62.7931574 L9.95268508,64.2204077 Z M11.415273,57.6775096 C11.2790397,58.1684252 11.148296,58.6616243 11.023112,59.1570368 L2.17863735,56.7871669 L2.57478895,55.308709 L11.415273,57.6775096 Z M13.4722269,51.4753365 C13.2880342,51.9505633 13.1091454,52.428434 12.9356333,52.9088759 L4.31261615,49.7703544 L4.83611637,48.3320493 L13.4722269,51.4753365 Z M16.2063866,45.3602269 C15.9750017,45.8145223 15.7486843,46.271831 15.527509,46.7320783 L7.25277849,42.6962226 L7.92375474,41.3205174 L16.2063866,45.3602269 Z M19.5423706,39.5546243 C19.2663506,39.9834281 18.995125,40.4156102 18.7287693,40.8510947 L10.8994686,35.9588046 L11.7105695,34.6607718 L19.5423706,39.5546243 Z M23.4434585,34.1151271 C23.1257727,34.5142018 22.8125795,34.9170122 22.5039554,35.3234817 L15.214654,29.6284553 L16.156993,28.4223164 L23.4434585,34.1151271 Z M27.8686467,29.0940859 C27.512579,29.4594968 27.1606807,29.8289901 26.8130286,30.2024888 L20.1533185,23.7712815 L21.2165711,22.6702512 L27.8686467,29.0940859 Z M32.6465742,24.6469851 C32.2565172,24.9760201 31.8702982,25.3094612 31.487994,25.6472315 L25.4237675,18.671137 L26.5789352,17.666965 L32.6465742,24.6469851 Z M37.9731962,20.5925088 C37.5520561,20.8808936 37.1344023,21.1739974 36.7203108,21.4717441 L31.426863,13.9119172 L32.6806671,13.033994 L37.9731962,20.5925088 Z M43.6818684,17.0916933 C43.2337401,17.3363306 42.7887373,17.5859748 42.3469353,17.8405509 L37.8843927,9.7899111 L39.2230964,9.04785556 L43.6818684,17.0916933 Z M49.7173562,14.1827918 C49.2466453,14.3809553 48.7786938,14.5843808 48.3135755,14.7929947 L44.7289668,6.34818602 L46.1379028,5.75012817 L49.7173562,14.1827918 Z M56.0199269,11.8987125 C55.5313558,12.0481702 55.0451761,12.203103 54.5614595,12.3634393 L51.8891493,3.62270651 L53.3528811,3.1751988 L56.0199269,11.8987125 Z M62.3602311,10.2979218 C61.8591106,10.3983552 61.3600255,10.5044213 60.8630445,10.616051 L58.972192,1.72028938 L60.4693567,1.4020572 L62.3602311,10.2979218 Z M68.9988394,9.31373599 C68.4899144,9.36311435 67.9826686,9.41822931 67.4771677,9.47901539 L66.5304198,0.471311294 L68.0526472,0.311318748 L68.9988394,9.31373599 Z" id="Combined-Shape"></path>
                    </g>
                </g>
                <circle id="Oval-2" fill="#E9EBF6" cx="75.5" cy="72.5" r="9.5"></circle>
                <path d="M127.880208,107.685885 C134.130016,97.842335 137.5,86.4211887 137.5,74.5 C137.5,40.2583455 109.741654,12.5 75.5,12.5 C41.2583455,12.5 13.5,40.2583455 13.5,74.5 C13.5,86.2056576 16.7488948,97.4307438 22.7877716,107.157069 L127.880208,107.685885 Z" id="Oval" stroke="#E9EBF6"></path>
                <path d="M37.7133179,103.677307 L74.7037649,64.6477631 L41.3740048,107.326278 C40.5538726,108.376452 39.0376904,108.562937 37.9875171,107.742805 C37.9131496,107.684728 37.8422533,107.622338 37.7751935,107.555957 L37.7751935,107.555957 C36.7033607,106.494972 36.6758734,104.771941 37.7133179,103.677307 Z" id="Path-2" fill="url(#linearGradient-2)" transform="translate(55.828343, 86.450911) rotate(195.000000) translate(-55.828343, -86.450911) "></path>
            </g>
        </g>
        <g id="Group-6" transform="translate(543.000000, 132.000000)">
            <text id="Upload-speed" font-family="RobotoMono-Regular, Roboto Mono" font-size="12" font-weight="normal" fill="#7B7C96">
                <tspan x="32.2929688" y="154">Upload speed</tspan>
            </text>
            <g id="Group-Copy" transform="translate(47.000000, 105.000000)">
                <text id="0" font-family="Roboto-Light, Roboto" font-size="27" font-weight="300" fill="#232AA2">
                    <tspan x="0.129394531" y="28">0</tspan>
                </text>
                <text id="Mbps" font-family="Roboto-Regular, Roboto" font-size="14" font-weight="normal" fill="#797CB6">
                    <tspan x="21" y="28">Mbps</tspan>
                </text>
            </g>
            <g id="Group-3-Copy">
                <g id="Group-4" fill="url(#linearGradient-1)">
                    <g id="Rectangle-4">
                        <path d="M75.7074665,9.00031676 C75.6383357,9.00010564 75.5691802,9 75.5,9 C75.0579307,9 74.6168688,9.00431355 74.1768542,9.01290086 L74.1768542,6.10622664e-16 L75.7074665,6.10622664e-16 L75.7074665,9.00031676 Z M82.420112,9.35571853 C81.9136669,9.30335449 81.4055349,9.25667417 80.8957808,9.21574243 L81.8316734,0.311318748 L83.3539008,0.471311294 L82.420112,9.35571853 Z M89.0702421,10.3856843 C88.5714522,10.2822671 88.0706167,10.1844369 87.5678039,10.0922619 L89.4149639,1.4020572 L90.9121286,1.72028938 L89.0702421,10.3856843 Z M95.4229968,12.0359103 C94.9368086,11.8834366 94.4482164,11.7363955 93.9572914,11.5948582 L96.5314396,3.1751988 L97.9951713,3.62270651 L95.4229968,12.0359103 Z M101.746065,14.3799682 C101.277792,14.1786169 100.806742,13.9824896 100.33299,13.7916597 L103.746418,5.75012817 L105.155354,6.34818602 L101.746065,14.3799682 Z M107.803996,17.3595731 C107.358504,17.1115187 106.909864,16.868436 106.458151,16.6304 L110.661224,9.04785556 L111.999928,9.7899111 L107.803996,17.3595731 Z M113.53403,20.9433006 C113.115878,20.6512428 112.694211,20.3638697 112.269107,20.0812573 L117.203654,13.033994 L118.457458,13.9119172 L113.53403,20.9433006 Z M118.877497,25.0937082 C118.490934,24.7607463 118.100499,24.4321553 117.706269,24.1080121 L123.305385,17.666965 L124.460553,18.671137 L118.877497,25.0937082 Z M123.655614,29.6382158 C123.303672,29.2687833 122.947522,28.9033953 122.587242,28.5421288 L128.66775,22.6702512 L129.731002,23.7712815 L123.655614,29.6382158 Z M128.07785,34.7785467 C127.76506,34.3752711 127.447732,33.975691 127.125944,33.5798828 L133.727328,28.4223164 L134.669667,29.6284553 L128.07785,34.7785467 Z M131.960506,40.3481034 C131.690281,39.9149889 131.415211,39.485209 131.135371,39.0588397 L138.173751,34.6607718 L138.984852,35.9588046 L131.960506,40.3481034 Z M135.401056,46.5839004 C135.178716,46.1241575 134.951238,45.6673629 134.718698,45.2135912 L142.28959,41.6242948 L142.960566,43 L135.401056,46.5839004 Z M137.933714,52.5503556 C137.757418,52.0709012 137.575758,51.5940393 137.388805,51.1198428 L145.048204,48.3320493 L145.571705,49.7703544 L137.933714,52.5503556 Z M139.905529,58.8772121 C139.778181,58.3823617 139.645281,57.8897403 139.506899,57.3994183 L147.309532,55.308709 L147.705683,56.7871669 L139.905529,58.8772121 Z M141.262023,65.5593866 C141.186248,65.0538381 141.104781,64.5501513 141.017692,64.0483933 L148.94294,62.7931574 L149.18238,64.3049252 L141.262023,65.5593866 Z M141.926756,72.3509807 C141.90294,71.8400978 141.873359,71.3307215 141.838077,70.8229154 L149.804215,70.4054278 L149.884321,71.9339424 L141.926756,72.3509807 Z M141.899882,79.1803237 C141.927606,78.6720723 141.949622,78.1623017 141.965868,77.6510749 L149.884321,78.0660576 L149.804215,79.5945722 L141.899882,79.1803237 Z M141.179349,85.9772106 C141.258954,85.4742123 141.33292,84.9693378 141.40118,84.4626538 L149.18238,85.6950748 L148.94294,87.2068426 L141.179349,85.9772106 Z M139.762454,92.6690577 C139.893648,92.1767505 140.019335,91.6821966 140.139445,91.1854658 L147.705683,93.2128331 L147.309532,94.691291 L139.762454,92.6690577 Z M137.727295,99.0033577 C137.907451,98.5266243 138.082286,98.0472781 138.251726,97.5653915 L145.571705,100.229646 L145.048204,101.667951 L137.727295,99.0033577 Z M134.97845,105.274077 C135.207014,104.818376 135.430494,104.359683 135.648817,103.898075 L142.631542,107.303777 L141.960566,108.679483 L134.97845,105.274077 Z M131.960397,110.652071 C132.230272,110.21952 132.495315,109.783643 132.75545,109.344515 L138.984852,113.041195 L138.173751,114.339228 L131.960397,110.652071 Z M17.9564568,108.853405 C18.212811,109.294731 18.4740966,109.732838 18.7402383,110.16765 L11.7105695,114.339228 L10.8994686,113.041195 L17.9564568,108.853405 Z M15.1436847,103.455125 C15.3586013,103.918359 15.578694,104.378704 15.8038883,104.836085 L7.92375474,108.679483 L7.25277849,107.303777 L15.1436847,103.455125 Z M12.6227269,97.2050127 C12.7893837,97.6878873 12.9614461,98.1682425 13.1388419,98.6460057 L4.83611637,101.667951 L4.31261615,100.229646 L12.6227269,97.2050127 Z M10.793278,90.9045471 C10.9112243,91.4018402 11.0347549,91.896972 11.1637999,92.3898724 L2.57478895,94.691291 L2.17863735,93.2128331 L10.793278,90.9045471 Z M9.57573778,84.2896033 C9.64267034,84.796488 9.715312,85.3015723 9.79359604,85.8047895 L0.941380957,87.2068426 L0.701940449,85.6950748 L9.57573778,84.2896033 Z M9.03230226,77.5927 C9.0481065,78.1039572 9.06968147,78.6137611 9.09696423,79.1220486 L0.0801060555,79.5945722 L4.16333634e-16,78.0660576 L9.0323021,77.5926947 Z M9.15790084,70.8811748 C9.12306169,71.3890012 9.0939239,71.8983947 9.07055099,72.4092918 L1.42108547e-14,71.9339424 L0.0801060555,70.4054278 L9.15790084,70.8811748 Z M9.95268508,64.2204077 C9.86691868,64.7223851 9.78677845,65.2262819 9.71233161,65.732031 L0.701940449,64.3049252 L0.941380957,62.7931574 L9.95268508,64.2204077 Z M11.415273,57.6775096 C11.2790397,58.1684252 11.148296,58.6616243 11.023112,59.1570368 L2.17863735,56.7871669 L2.57478895,55.308709 L11.415273,57.6775096 Z M13.4722269,51.4753365 C13.2880342,51.9505633 13.1091454,52.428434 12.9356333,52.9088759 L4.31261615,49.7703544 L4.83611637,48.3320493 L13.4722269,51.4753365 Z M16.2063866,45.3602269 C15.9750017,45.8145223 15.7486843,46.271831 15.527509,46.7320783 L7.25277849,42.6962226 L7.92375474,41.3205174 L16.2063866,45.3602269 Z M19.5423706,39.5546243 C19.2663506,39.9834281 18.995125,40.4156102 18.7287693,40.8510947 L10.8994686,35.9588046 L11.7105695,34.6607718 L19.5423706,39.5546243 Z M23.4434585,34.1151271 C23.1257727,34.5142018 22.8125795,34.9170122 22.5039554,35.3234817 L15.214654,29.6284553 L16.156993,28.4223164 L23.4434585,34.1151271 Z M27.8686467,29.0940859 C27.512579,29.4594968 27.1606807,29.8289901 26.8130286,30.2024888 L20.1533185,23.7712815 L21.2165711,22.6702512 L27.8686467,29.0940859 Z M32.6465742,24.6469851 C32.2565172,24.9760201 31.8702982,25.3094612 31.487994,25.6472315 L25.4237675,18.671137 L26.5789352,17.666965 L32.6465742,24.6469851 Z M37.9731962,20.5925088 C37.5520561,20.8808936 37.1344023,21.1739974 36.7203108,21.4717441 L31.426863,13.9119172 L32.6806671,13.033994 L37.9731962,20.5925088 Z M43.6818684,17.0916933 C43.2337401,17.3363306 42.7887373,17.5859748 42.3469353,17.8405509 L37.8843927,9.7899111 L39.2230964,9.04785556 L43.6818684,17.0916933 Z M49.7173562,14.1827918 C49.2466453,14.3809553 48.7786938,14.5843808 48.3135755,14.7929947 L44.7289668,6.34818602 L46.1379028,5.75012817 L49.7173562,14.1827918 Z M56.0199269,11.8987125 C55.5313558,12.0481702 55.0451761,12.203103 54.5614595,12.3634393 L51.8891493,3.62270651 L53.3528811,3.1751988 L56.0199269,11.8987125 Z M62.3602311,10.2979218 C61.8591106,10.3983552 61.3600255,10.5044213 60.8630445,10.616051 L58.972192,1.72028938 L60.4693567,1.4020572 L62.3602311,10.2979218 Z M68.9988394,9.31373599 C68.4899144,9.36311435 67.9826686,9.41822931 67.4771677,9.47901539 L66.5304198,0.471311294 L68.0526472,0.311318748 L68.9988394,9.31373599 Z" id="Combined-Shape"></path>
                    </g>
                </g>
                <circle id="Oval-2" fill="#E9EBF6" cx="75.5" cy="72.5" r="9.5"></circle>
                <path d="M127.880208,107.685885 C134.130016,97.842335 137.5,86.4211887 137.5,74.5 C137.5,40.2583455 109.741654,12.5 75.5,12.5 C41.2583455,12.5 13.5,40.2583455 13.5,74.5 C13.5,86.2056576 16.7488948,97.4307438 22.7877716,107.157069 L127.880208,107.685885 Z" id="Oval" stroke="#E9EBF6"></path>
                <path d="M37.1078683,104.326058 L74.0983154,65.296514 L40.7685552,107.975029 C39.948423,109.025203 38.4322408,109.211688 37.3820675,108.391556 C37.3077001,108.333478 37.2368038,108.271089 37.1697439,108.204707 L37.1697439,108.204707 C36.0979112,107.143723 36.0704239,105.420692 37.1078683,104.326058 Z" id="Path-2" fill="url(#linearGradient-2)" transform="translate(55.222894, 87.099662) rotate(196.000000) translate(-55.222894, -87.099662) "></path>
            </g>
        </g>
        <rect id="Rectangle-7" fill="#232664" opacity="0.100000001" x="333" y="319" width="393" height="1"></rect>
        <rect id="Rectangle-7-Copy" fill="#232664" opacity="0.100000001" x="333" y="95" width="393" height="1"></rect>
        <rect id="Rectangle-3" fill="#E9E9EF" x="529" y="0" width="1" height="96"></rect>
        <g id="Rectangle-8">
            <use fill="black" fill-opacity="1" filter="url(#filter-4)" xlink:href="#path-3"></use>
            <use fill="#41D65A" fill-rule="evenodd" xlink:href="#path-3"></use>
        </g>
        <text id="Connect" font-family="Ubuntu-Bold, Ubuntu" font-size="18" font-weight="bold" fill="#FFFFFF">
            <tspan x="492.351" y="380">Connect</tspan>
        </text>
        <text id="Connections" font-family="RobotoMono-Regular, Roboto Mono" font-size="12" font-weight="normal" fill="#7B7C96">
            <tspan x="391.393555" y="71">Connections</tspan>
        </text>
        <text id="0" font-family="Roboto-Light, Roboto" font-size="27" font-weight="300" fill="#232AA2">
            <tspan x="422.629395" y="51">0</tspan>
        </text>
        <text id="Time-connected" font-family="RobotoMono-Regular, Roboto Mono" font-size="12" font-weight="normal" fill="#7B7C96">
            <tspan x="577.091797" y="71">Time connected</tspan>
        </text>
        <text id="00:00:00" font-family="Roboto-Light, Roboto" font-size="27" font-weight="300" fill="#232AA2">
            <tspan x="574.054688" y="51">00:00:00</tspan>
        </text>
        <g id="button-power" transform="translate(383.000000, 364.000000)" stroke="#FFFFFF" stroke-linecap="round" stroke-width="2">
            <path d="M15,1.3 C18,3 20,6.3 20,10 C20,15.5 15.5,20 10,20 C4.5,20 0,15.5 0,10 C0,6.3 2,3.1 5,1.3" id="Shape"></path>
            <path d="M10,0 L10,10" id="Shape" stroke-linejoin="round"></path>
        </g>
    </g>
</svg>