<?xml version="1.0" encoding="UTF-8"?>
<svg width="723px" height="427px" viewBox="0 0 723 427" version="1.1" xmlns="http://www.w3.org/2000/svg" xmlns:xlink="http://www.w3.org/1999/xlink" style="background: #FFFFFF;">
    <!-- Generator: Sketch 49 (51002) - http://www.bohemiancoding.com/sketch -->
    <title>noia-app-directory</title>
    <desc>Created with Sketch.</desc>
    <defs>
        <path d="M156,210 L230,210 C232.209139,210 234,211.790861 234,214 L234,243 C234,245.209139 232.209139,247 230,247 L156,247 C153.790861,247 152,245.209139 152,243 L152,214 C152,211.790861 153.790861,210 156,210 Z" id="path-1"></path>
        <filter x="-31.1%" y="-44.6%" width="162.2%" height="237.8%" filterUnits="objectBoundingBox" id="filter-2">
            <feOffset dx="0" dy="9" in="SourceAlpha" result="shadowOffsetOuter1"></feOffset>
            <feGaussianBlur stdDeviation="7" in="shadowOffsetOuter1" result="shadowBlurOuter1"></feGaussianBlur>
            <feColorMatrix values="0 0 0 0 0.298039216   0 0 0 0 0.850980392   0 0 0 0 0.392156863  0 0 0 0.307206748 0" type="matrix" in="shadowBlurOuter1"></feColorMatrix>
        </filter>
    </defs>
    <g id="noia-app-directory" stroke="none" stroke-width="1" fill="none" fill-rule="evenodd">
        <polygon id="Rectangle-2" fill="#3940BB" points="0 0 122 0 122 427 0 427"></polygon>
        <g id="Page-1" transform="translate(39.000000, 364.000000)" fill="#FFFFFF">
            <g id="Group-40" transform="translate(0.000000, 0.958300)">
                <polygon id="Fill-7" points="1.88330298 29.2338976 2.80109196 29.2338976 2.80109196 15.1802539 1.88330298 15.1802539"></polygon>
                <polygon id="Fill-8" points="41.6543117 16.671661 42.5721007 16.671661 42.5721007 2.39315892 41.6543117 2.39315892"></polygon>
                <polygon id="Fill-9" points="21.9025751 22.7584375 36.2430279 22.7584375 36.2430279 21.8406485 21.9025751 21.8406485"></polygon>
                <polygon id="Fill-10" points="2.34219747 22.7584375 9.56978568 22.7584375 9.56978568 21.8406485 2.34219747 21.8406485"></polygon>
                <polygon id="Fill-11" points="2.34219747 16.1301655 42.1132062 16.1301655 42.1132062 15.2123765 2.34219747 15.2123765"></polygon>
                <polygon id="Fill-12" points="35.2678771 9.50143456 42.1132062 9.50143456 42.1132062 8.58364558 35.2678771 8.58364558"></polygon>
                <polygon id="Fill-13" points="8.88144394 9.50143456 23.7955148 9.50143456 23.7955148 8.58364558 8.88144394 8.58364558"></polygon>
                <polygon id="Fill-14" points="35.0255808 22.6372893 35.9433698 22.6372893 35.9433698 7.89530385 35.0255808 7.89530385"></polygon>
                <polygon id="Fill-15" points="28.3973088 28.927815 29.3150978 28.927815 29.3150978 14.7787212 28.3973088 14.7787212"></polygon>
                <polygon id="Fill-16" points="21.7690368 23.2682692 22.6868258 23.2682692 22.6868258 8.35419833 21.7690368 8.35419833"></polygon>
                <polygon id="Fill-17" points="15.1403059 16.040681 16.0580949 16.040681 16.0580949 1.24133375 15.1403059 1.24133375"></polygon>
                <polygon id="Fill-18" points="8.51203388 23.1250942 9.42982286 23.1250942 9.42982286 8.29683652 8.51203388 8.29683652"></polygon>
                <path d="M4.70376029,22.2549843 C4.70376029,20.955854 3.65059744,19.9031501 2.35192604,19.9031501 C1.05279574,19.9031501 9.17788978e-05,20.955854 9.17788978e-05,22.2549843 C9.17788978e-05,23.5541146 1.05279574,24.6068186 2.35192604,24.6068186 C3.65059744,24.6068186 4.70376029,23.5541146 4.70376029,22.2549843" id="Fill-19"></path>
                <path d="M11.3306097,22.2549843 C11.3306097,20.955854 10.2779058,19.9031501 8.97877546,19.9031501 C7.67964517,19.9031501 6.62694121,20.955854 6.62694121,22.2549843 C6.62694121,23.5541146 7.67964517,24.6068186 8.97877546,24.6068186 C10.2779058,24.6068186 11.3306097,23.5541146 11.3306097,22.2549843" id="Fill-20"></path>
                <path d="M24.5843545,22.2549843 C24.5843545,20.955854 23.5316505,19.9031501 22.2325202,19.9031501 C20.9338488,19.9031501 19.880686,20.955854 19.880686,22.2549843 C19.880686,23.5541146 20.9338488,24.6068186 22.2325202,24.6068186 C23.5316505,24.6068186 24.5843545,23.5541146 24.5843545,22.2549843" id="Fill-21"></path>
                <path d="M31.2114333,22.2549843 C31.2114333,20.955854 30.1587294,19.9031501 28.8595991,19.9031501 C27.5604688,19.9031501 26.5077648,20.955854 26.5077648,22.2549843 C26.5077648,23.5541146 27.5604688,24.6068186 28.8595991,24.6068186 C30.1587294,24.6068186 31.2114333,23.5541146 31.2114333,22.2549843" id="Fill-22"></path>
                <path d="M37.8382828,22.2549843 C37.8382828,20.955854 36.7855788,19.9031501 35.4864485,19.9031501 C34.1873182,19.9031501 33.1346143,20.955854 33.1346143,22.2549843 C33.1346143,23.5541146 34.1873182,24.6068186 35.4864485,24.6068186 C36.7855788,24.6068186 37.8382828,23.5541146 37.8382828,22.2549843" id="Fill-23"></path>
                <path d="M4.70376029,28.8755469 C4.70376029,27.5764166 3.65059744,26.5237126 2.35192604,26.5237126 C1.05279574,26.5237126 9.17788978e-05,27.5764166 9.17788978e-05,28.8755469 C9.17788978e-05,30.1746772 1.05279574,31.2273811 2.35192604,31.2273811 C3.65059744,31.2273811 4.70376029,30.1746772 4.70376029,28.8755469" id="Fill-24"></path>
                <path d="M31.2114333,28.8755469 C31.2114333,27.5764166 30.1587294,26.5237126 28.8595991,26.5237126 C27.5604688,26.5237126 26.5077648,27.5764166 26.5077648,28.8755469 C26.5077648,30.1746772 27.5604688,31.2273811 28.8595991,31.2273811 C30.1587294,31.2273811 31.2114333,30.1746772 31.2114333,28.8755469" id="Fill-25"></path>
                <path d="M4.70376029,15.6343758 C4.70376029,14.3357044 3.65059744,13.2825416 2.35192604,13.2825416 C1.05279574,13.2825416 9.17788978e-05,14.3357044 9.17788978e-05,15.6343758 C9.17788978e-05,16.9335061 1.05279574,17.9862101 2.35192604,17.9862101 C3.65059744,17.9862101 4.70376029,16.9335061 4.70376029,15.6343758" id="Fill-26"></path>
                <path d="M11.3306097,15.6343758 C11.3306097,14.3357044 10.2779058,13.2825416 8.97877546,13.2825416 C7.67964517,13.2825416 6.62694121,14.3357044 6.62694121,15.6343758 C6.62694121,16.9335061 7.67964517,17.9862101 8.97877546,17.9862101 C10.2779058,17.9862101 11.3306097,16.9335061 11.3306097,15.6343758" id="Fill-27"></path>
                <path d="M17.957505,15.6343758 C17.957505,14.3357044 16.9048011,13.2825416 15.6056708,13.2825416 C14.3065405,13.2825416 13.2538365,14.3357044 13.2538365,15.6343758 C13.2538365,16.9335061 14.3065405,17.9862101 15.6056708,17.9862101 C16.9048011,17.9862101 17.957505,16.9335061 17.957505,15.6343758" id="Fill-28"></path>
                <path d="M24.5843545,15.6343758 C24.5843545,14.3357044 23.5316505,13.2825416 22.2325202,13.2825416 C20.9338488,13.2825416 19.880686,14.3357044 19.880686,15.6343758 C19.880686,16.9335061 20.9338488,17.9862101 22.2325202,17.9862101 C23.5316505,17.9862101 24.5843545,16.9335061 24.5843545,15.6343758" id="Fill-29"></path>
                <path d="M31.2114333,15.6343758 C31.2114333,14.3357044 30.1587294,13.2825416 28.8595991,13.2825416 C27.5604688,13.2825416 26.5077648,14.3357044 26.5077648,15.6343758 C26.5077648,16.9335061 27.5604688,17.9862101 28.8595991,17.9862101 C30.1587294,17.9862101 31.2114333,16.9335061 31.2114333,15.6343758" id="Fill-30"></path>
                <path d="M37.8382828,15.6343758 C37.8382828,14.3357044 36.7855788,13.2825416 35.4864485,13.2825416 C34.1873182,13.2825416 33.1346143,14.3357044 33.1346143,15.6343758 C33.1346143,16.9335061 34.1873182,17.9862101 35.4864485,17.9862101 C36.7855788,17.9862101 37.8382828,16.9335061 37.8382828,15.6343758" id="Fill-31"></path>
                <path d="M44.4651322,15.6343758 C44.4651322,14.3357044 43.4124282,13.2825416 42.1132979,13.2825416 C40.8146265,13.2825416 39.7614637,14.3357044 39.7614637,15.6343758 C39.7614637,16.9335061 40.8146265,17.9862101 42.1132979,17.9862101 C43.4124282,17.9862101 44.4651322,16.9335061 44.4651322,15.6343758" id="Fill-32"></path>
                <path d="M11.3306097,9.01404272 C11.3306097,7.71491242 10.2779058,6.66220846 8.97877546,6.66220846 C7.67964517,6.66220846 6.62694121,7.71491242 6.62694121,9.01404272 C6.62694121,10.313173 7.67964517,11.365877 8.97877546,11.365877 C10.2779058,11.365877 11.3306097,10.313173 11.3306097,9.01404272" id="Fill-33"></path>
                <path d="M17.957505,9.01404272 C17.957505,7.71491242 16.9048011,6.66220846 15.6056708,6.66220846 C14.3065405,6.66220846 13.2538365,7.71491242 13.2538365,9.01404272 C13.2538365,10.313173 14.3065405,11.365877 15.6056708,11.365877 C16.9048011,11.365877 17.957505,10.313173 17.957505,9.01404272" id="Fill-34"></path>
                <path d="M24.5843545,9.01404272 C24.5843545,7.71491242 23.5316505,6.66220846 22.2325202,6.66220846 C20.9338488,6.66220846 19.880686,7.71491242 19.880686,9.01404272 C19.880686,10.313173 20.9338488,11.365877 22.2325202,11.365877 C23.5316505,11.365877 24.5843545,10.313173 24.5843545,9.01404272" id="Fill-35"></path>
                <path d="M37.8382828,9.01404272 C37.8382828,7.71491242 36.7855788,6.66220846 35.4864485,6.66220846 C34.1873182,6.66220846 33.1346143,7.71491242 33.1346143,9.01404272 C33.1346143,10.313173 34.1873182,11.365877 35.4864485,11.365877 C36.7855788,11.365877 37.8382828,10.313173 37.8382828,9.01404272" id="Fill-36"></path>
                <path d="M44.4651322,9.01404272 C44.4651322,7.71491242 43.4124282,6.66220846 42.1132979,6.66220846 C40.8146265,6.66220846 39.7614637,7.71491242 39.7614637,9.01404272 C39.7614637,10.313173 40.8146265,11.365877 42.1132979,11.365877 C43.4124282,11.365877 44.4651322,10.313173 44.4651322,9.01404272" id="Fill-37"></path>
                <path d="M17.957505,2.39343426 C17.957505,1.09430396 16.9048011,0.0416 15.6056708,0.0416 C14.3065405,0.0416 13.2538365,1.09430396 13.2538365,2.39343426 C13.2538365,3.69256456 14.3065405,4.74526851 15.6056708,4.74526851 C16.9048011,4.74526851 17.957505,3.69256456 17.957505,2.39343426" id="Fill-38"></path>
                <path d="M44.4651322,2.39343426 C44.4651322,1.09430396 43.4124282,0.0416 42.1132979,0.0416 C40.8146265,0.0416 39.7614637,1.09430396 39.7614637,2.39343426 C39.7614637,3.69256456 40.8146265,4.74526851 42.1132979,4.74526851 C43.4124282,4.74526851 44.4651322,3.69256456 44.4651322,2.39343426" id="Fill-39"></path>
            </g>
        </g>
        <text id="Wallet" opacity="0.600000024" font-family="Ubuntu-Medium, Ubuntu" font-size="16" font-weight="400" fill="#FFFFFF">
            <tspan x="30" y="87">Wallet</tspan>
        </text>
        <text id="Node" opacity="0.600000024" font-family="Ubuntu-Medium, Ubuntu" font-size="16" font-weight="400" fill="#FFFFFF">
            <tspan x="30" y="45">Node</tspan>
        </text>
        <text id="Settings" font-family="Ubuntu-Medium, Ubuntu" font-size="16" font-weight="400" fill="#FFFFFF">
            <tspan x="30" y="129">Settings</tspan>
        </text>
        <text id="Network-port" font-family="Roboto-Light, Roboto" font-size="18" font-weight="300" fill="#101466">
            <tspan x="152" y="53">Network port</tspan>
        </text>
        <polygon id="Rectangle-7-Copy" fill="#232664" opacity="0.100000001" points="121 89 726 89 726 90 121 90"></polygon>
        <text id="Storage-directory" font-family="Roboto-Light, Roboto" font-size="18" font-weight="300" fill="#101466">
            <tspan x="152" y="143">Storage directory</tspan>
        </text>
        <polygon id="Rectangle-7-Copy-2" fill="#232664" opacity="0.100000001" points="121 179 726 179 726 180 121 180"></polygon>
        <g id="Rectangle-8-Copy">
            <use fill="black" fill-opacity="1" filter="url(#filter-2)" xlink:href="#path-1"></use>
            <use fill="#41D65A" fill-rule="evenodd" xlink:href="#path-1"></use>
        </g>
        <text id="Save-Copy" font-family="Ubuntu-Bold, Ubuntu" font-size="14" font-weight="bold" fill="#FFFFFF">
            <tspan x="177.117" y="234">Save</tspan>
        </text>
        <rect id="Rectangle-9" fill="#CACBDA" x="319" y="148" width="376" height="1"></rect>
        <text id="Select-directory" font-family="Roboto-Regular, Roboto" font-size="14" font-weight="normal" fill="#9395B3">
            <tspan x="319" y="136">Select directory</tspan>
        </text>
        <g id="folder-14" transform="translate(677.000000, 121.000000)" stroke="#3940BB" stroke-linecap="round" stroke-linejoin="round">
            <path d="M0.5,6.5 L15.5,6.5" id="Shape"></path>
            <path d="M7.5,3.5 L5.5,0.5 L0.5,0.5 L0.5,13.5 C0.5,14.605 1.395,15.5 2.5,15.5 L13.5,15.5 C14.605,15.5 15.5,14.605 15.5,13.5 L15.5,3.5 L7.5,3.5 Z" id="Shape"></path>
        </g>
        <rect id="Rectangle-9-Copy" fill="#3940BB" x="319" y="58" width="376" height="1"></rect>
        <text id="0914" font-family="Roboto-Regular, Roboto" font-size="14" font-weight="normal" fill="#3940BB">
            <tspan x="319" y="46">0914</tspan>
        </text>
        <g id="filter-organization" transform="translate(676.000000, 32.000000)" stroke="#3940BB" stroke-linecap="round" stroke-linejoin="round">
            <rect id="Rectangle-path" x="6.5" y="3.5" width="9" height="4"></rect>
            <rect id="Rectangle-path" x="6.5" y="11.5" width="9" height="4"></rect>
            <polyline id="Shape" points="0.5 0.5 0.5 13.5 3.5 13.5"></polyline>
            <path d="M0.5,5.5 L3.5,5.5" id="Shape"></path>
        </g>
        <text id="Copyrights-©-NOIA." font-family="RobotoMono-Regular, Roboto Mono" font-size="12" font-weight="normal" fill="#A1A4C5">
            <tspan x="563" y="394">Copyrights © NOIA.</tspan>
        </text>
    </g>
</svg>