<?xml version="1.0" encoding="UTF-8" standalone="no"?>
<!-- Created with Inkscape (http://www.inkscape.org/) -->

<svg
   xmlns:dc="http://purl.org/dc/elements/1.1/"
   xmlns:cc="http://creativecommons.org/ns#"
   xmlns:rdf="http://www.w3.org/1999/02/22-rdf-syntax-ns#"
   xmlns:svg="http://www.w3.org/2000/svg"
   xmlns="http://www.w3.org/2000/svg"
   xmlns:sodipodi="http://sodipodi.sourceforge.net/DTD/sodipodi-0.dtd"
   xmlns:inkscape="http://www.inkscape.org/namespaces/inkscape"
   width="12.549023mm"
   height="8.8013201mm"
   viewBox="0 0 44.465041 31.18578"
   id="svg2"
   version="1.1"
   inkscape:version="0.91 r13725"
   sodipodi:docname="noia-logo.svg">
  <defs
     id="defs4" />
  <sodipodi:namedview
     id="base"
     pagecolor="#ffffff"
     bordercolor="#666666"
     borderopacity="1.0"
     inkscape:pageopacity="0.0"
     inkscape:pageshadow="2"
     inkscape:zoom="0.35"
     inkscape:cx="1021.5183"
     inkscape:cy="-232.97853"
     inkscape:document-units="px"
     inkscape:current-layer="layer1"
     showgrid="false"
     fit-margin-top="0"
     fit-margin-left="0"
     fit-margin-right="0"
     fit-margin-bottom="0"
     inkscape:window-width="3440"
     inkscape:window-height="1377"
     inkscape:window-x="-8"
     inkscape:window-y="-8"
     inkscape:window-maximized="1" />
  <metadata
     id="metadata7">
    <rdf:RDF>
      <cc:Work
         rdf:about="">
        <dc:format>image/svg+xml</dc:format>
        <dc:type
           rdf:resource="http://purl.org/dc/dcmitype/StillImage" />
        <dc:title></dc:title>
      </cc:Work>
    </rdf:RDF>
  </metadata>
  <g
     inkscape:label="Layer 1"
     inkscape:groupmode="layer"
     id="layer1"
     transform="translate(1073.6611,-268.19789)">
    <g
       style="fill:#ffffff"
       id="Page-1"
       transform="translate(-1073.6612,267.19799)">
      <g
         id="Group-40"
         transform="translate(0,0.9583)">
        <polygon
           id="Fill-7"
           points="1.883303,29.233898 2.801092,29.233898 2.801092,15.180254 1.883303,15.180254 " />
        <polygon
           id="Fill-8"
           points="41.654312,16.671661 42.572101,16.671661 42.572101,2.3931589 41.654312,2.3931589 " />
        <polygon
           id="Fill-9"
           points="21.902575,22.758437 36.243028,22.758437 36.243028,21.840649 21.902575,21.840649 " />
        <polygon
           id="Fill-10"
           points="2.3421975,22.758437 9.5697857,22.758437 9.5697857,21.840649 2.3421975,21.840649 " />
        <polygon
           id="Fill-11"
           points="2.3421975,16.130166 42.113206,16.130166 42.113206,15.212376 2.3421975,15.212376 " />
        <polygon
           id="Fill-12"
           points="35.267877,9.5014346 42.113206,9.5014346 42.113206,8.5836456 35.267877,8.5836456 " />
        <polygon
           id="Fill-13"
           points="8.8814439,9.5014346 23.795515,9.5014346 23.795515,8.5836456 8.8814439,8.5836456 " />
        <polygon
           id="Fill-14"
           points="35.025581,22.637289 35.94337,22.637289 35.94337,7.8953039 35.025581,7.8953039 " />
        <polygon
           id="Fill-15"
           points="28.397309,28.927815 29.315098,28.927815 29.315098,14.778721 28.397309,14.778721 " />
        <polygon
           id="Fill-16"
           points="21.769037,23.268269 22.686826,23.268269 22.686826,8.3541983 21.769037,8.3541983 " />
        <polygon
           id="Fill-17"
           points="15.140306,16.040681 16.058095,16.040681 16.058095,1.2413337 15.140306,1.2413337 " />
        <polygon
           id="Fill-18"
           points="8.5120339,23.125094 9.4298229,23.125094 9.4298229,8.2968365 8.5120339,8.2968365 " />
        <path
           inkscape:connector-curvature="0"
           d="m 4.7037603,22.254984 c 0,-1.29913 -1.0531629,-2.351834 -2.3518343,-2.351834 -1.2991303,0 -2.351834221102,1.052704 -2.351834221102,2.351834 0,1.299131 1.052703921102,2.351835 2.351834221102,2.351835 1.2986714,0 2.3518343,-1.052704 2.3518343,-2.351835"
           id="Fill-19" />
        <path
           inkscape:connector-curvature="0"
           d="m 11.33061,22.254984 c 0,-1.29913 -1.052704,-2.351834 -2.3518345,-2.351834 -1.2991303,0 -2.3518343,1.052704 -2.3518343,2.351834 0,1.299131 1.052704,2.351835 2.3518343,2.351835 1.2991305,0 2.3518345,-1.052704 2.3518345,-2.351835"
           id="Fill-20" />
        <path
           inkscape:connector-curvature="0"
           d="m 24.584354,22.254984 c 0,-1.29913 -1.052703,-2.351834 -2.351834,-2.351834 -1.298671,0 -2.351834,1.052704 -2.351834,2.351834 0,1.299131 1.053163,2.351835 2.351834,2.351835 1.299131,0 2.351834,-1.052704 2.351834,-2.351835"
           id="Fill-21" />
        <path
           inkscape:connector-curvature="0"
           d="m 31.211433,22.254984 c 0,-1.29913 -1.052704,-2.351834 -2.351834,-2.351834 -1.29913,0 -2.351834,1.052704 -2.351834,2.351834 0,1.299131 1.052704,2.351835 2.351834,2.351835 1.29913,0 2.351834,-1.052704 2.351834,-2.351835"
           id="Fill-22" />
        <path
           inkscape:connector-curvature="0"
           d="m 37.838283,22.254984 c 0,-1.29913 -1.052704,-2.351834 -2.351834,-2.351834 -1.299131,0 -2.351835,1.052704 -2.351835,2.351834 0,1.299131 1.052704,2.351835 2.351835,2.351835 1.29913,0 2.351834,-1.052704 2.351834,-2.351835"
           id="Fill-23" />
        <path
           inkscape:connector-curvature="0"
           d="m 4.7037603,28.875547 c 0,-1.29913 -1.0531629,-2.351834 -2.3518343,-2.351834 -1.2991303,0 -2.351834221102,1.052704 -2.351834221102,2.351834 0,1.29913 1.052703921102,2.351834 2.351834221102,2.351834 1.2986714,0 2.3518343,-1.052704 2.3518343,-2.351834"
           id="Fill-24" />
        <path
           inkscape:connector-curvature="0"
           d="m 31.211433,28.875547 c 0,-1.29913 -1.052704,-2.351834 -2.351834,-2.351834 -1.29913,0 -2.351834,1.052704 -2.351834,2.351834 0,1.29913 1.052704,2.351834 2.351834,2.351834 1.29913,0 2.351834,-1.052704 2.351834,-2.351834"
           id="Fill-25" />
        <path
           inkscape:connector-curvature="0"
           d="m 4.7037603,15.634376 c 0,-1.298672 -1.0531629,-2.351834 -2.3518343,-2.351834 -1.2991303,0 -2.351834221102,1.053162 -2.351834221102,2.351834 0,1.29913 1.052703921102,2.351834 2.351834221102,2.351834 1.2986714,0 2.3518343,-1.052704 2.3518343,-2.351834"
           id="Fill-26" />
        <path
           inkscape:connector-curvature="0"
           d="m 11.33061,15.634376 c 0,-1.298672 -1.052704,-2.351834 -2.3518345,-2.351834 -1.2991303,0 -2.3518343,1.053162 -2.3518343,2.351834 0,1.29913 1.052704,2.351834 2.3518343,2.351834 1.2991305,0 2.3518345,-1.052704 2.3518345,-2.351834"
           id="Fill-27" />
        <path
           inkscape:connector-curvature="0"
           d="m 17.957505,15.634376 c 0,-1.298672 -1.052704,-2.351834 -2.351834,-2.351834 -1.29913,0 -2.351834,1.053162 -2.351834,2.351834 0,1.29913 1.052704,2.351834 2.351834,2.351834 1.29913,0 2.351834,-1.052704 2.351834,-2.351834"
           id="Fill-28" />
        <path
           inkscape:connector-curvature="0"
           d="m 24.584354,15.634376 c 0,-1.298672 -1.052703,-2.351834 -2.351834,-2.351834 -1.298671,0 -2.351834,1.053162 -2.351834,2.351834 0,1.29913 1.053163,2.351834 2.351834,2.351834 1.299131,0 2.351834,-1.052704 2.351834,-2.351834"
           id="Fill-29" />
        <path
           inkscape:connector-curvature="0"
           d="m 31.211433,15.634376 c 0,-1.298672 -1.052704,-2.351834 -2.351834,-2.351834 -1.29913,0 -2.351834,1.053162 -2.351834,2.351834 0,1.29913 1.052704,2.351834 2.351834,2.351834 1.29913,0 2.351834,-1.052704 2.351834,-2.351834"
           id="Fill-30" />
        <path
           inkscape:connector-curvature="0"
           d="m 37.838283,15.634376 c 0,-1.298672 -1.052704,-2.351834 -2.351834,-2.351834 -1.299131,0 -2.351835,1.053162 -2.351835,2.351834 0,1.29913 1.052704,2.351834 2.351835,2.351834 1.29913,0 2.351834,-1.052704 2.351834,-2.351834"
           id="Fill-31" />
        <path
           inkscape:connector-curvature="0"
           d="m 44.465132,15.634376 c 0,-1.298672 -1.052704,-2.351834 -2.351834,-2.351834 -1.298671,0 -2.351834,1.053162 -2.351834,2.351834 0,1.29913 1.053163,2.351834 2.351834,2.351834 1.29913,0 2.351834,-1.052704 2.351834,-2.351834"
           id="Fill-32" />
        <path
           inkscape:connector-curvature="0"
           d="m 11.33061,9.0140427 c 0,-1.2991303 -1.052704,-2.3518342 -2.3518345,-2.3518342 -1.2991303,0 -2.3518343,1.0527039 -2.3518343,2.3518342 0,1.2991303 1.052704,2.3518343 2.3518343,2.3518343 1.2991305,0 2.3518345,-1.052704 2.3518345,-2.3518343"
           id="Fill-33" />
        <path
           inkscape:connector-curvature="0"
           d="m 17.957505,9.0140427 c 0,-1.2991303 -1.052704,-2.3518342 -2.351834,-2.3518342 -1.29913,0 -2.351834,1.0527039 -2.351834,2.3518342 0,1.2991303 1.052704,2.3518343 2.351834,2.3518343 1.29913,0 2.351834,-1.052704 2.351834,-2.3518343"
           id="Fill-34" />
        <path
           inkscape:connector-curvature="0"
           d="m 24.584354,9.0140427 c 0,-1.2991303 -1.052703,-2.3518342 -2.351834,-2.3518342 -1.298671,0 -2.351834,1.0527039 -2.351834,2.3518342 0,1.2991303 1.053163,2.3518343 2.351834,2.3518343 1.299131,0 2.351834,-1.052704 2.351834,-2.3518343"
           id="Fill-35" />
        <path
           inkscape:connector-curvature="0"
           d="m 37.838283,9.0140427 c 0,-1.2991303 -1.052704,-2.3518342 -2.351834,-2.3518342 -1.299131,0 -2.351835,1.0527039 -2.351835,2.3518342 0,1.2991303 1.052704,2.3518343 2.351835,2.3518343 1.29913,0 2.351834,-1.052704 2.351834,-2.3518343"
           id="Fill-36" />
        <path
           inkscape:connector-curvature="0"
           d="m 44.465132,9.0140427 c 0,-1.2991303 -1.052704,-2.3518342 -2.351834,-2.3518342 -1.298671,0 -2.351834,1.0527039 -2.351834,2.3518342 0,1.2991303 1.053163,2.3518343 2.351834,2.3518343 1.29913,0 2.351834,-1.052704 2.351834,-2.3518343"
           id="Fill-37" />
        <path
           inkscape:connector-curvature="0"
           d="m 17.957505,2.3934343 c 0,-1.2991303 -1.052704,-2.3518343 -2.351834,-2.3518343 -1.29913,0 -2.351834,1.052704 -2.351834,2.3518343 0,1.2991303 1.052704,2.3518342 2.351834,2.3518342 1.29913,0 2.351834,-1.0527039 2.351834,-2.3518342"
           id="Fill-38" />
        <path
           inkscape:connector-curvature="0"
           d="m 44.465132,2.3934343 c 0,-1.2991303 -1.052704,-2.3518343 -2.351834,-2.3518343 -1.298671,0 -2.351834,1.052704 -2.351834,2.3518343 0,1.2991303 1.053163,2.3518342 2.351834,2.3518342 1.29913,0 2.351834,-1.0527039 2.351834,-2.3518342"
           id="Fill-39" />
      </g>
    </g>
  </g>
</svg>
