<?xml version="1.0" encoding="UTF-8" standalone="no"?>
<svg
   xmlns:dc="http://purl.org/dc/elements/1.1/"
   xmlns:cc="http://creativecommons.org/ns#"
   xmlns:rdf="http://www.w3.org/1999/02/22-rdf-syntax-ns#"
   xmlns:svg="http://www.w3.org/2000/svg"
   xmlns="http://www.w3.org/2000/svg"
   xmlns:xlink="http://www.w3.org/1999/xlink"
   xmlns:sodipodi="http://sodipodi.sourceforge.net/DTD/sodipodi-0.dtd"
   xmlns:inkscape="http://www.inkscape.org/namespaces/inkscape"
   width="149.88432"
   height="114.33923"
   viewBox="0 0 149.88432 114.33923"
   version="1.1"
   id="svg4136"
   inkscape:version="0.91 r13725"
   sodipodi:docname="gauge.svg">
  <metadata
     id="metadata4325">
    <rdf:RDF>
      <cc:Work
         rdf:about="">
        <dc:format>image/svg+xml</dc:format>
        <dc:type
           rdf:resource="http://purl.org/dc/dcmitype/StillImage" />
        <dc:title>noia-app-connected</dc:title>
      </cc:Work>
    </rdf:RDF>
  </metadata>
  <sodipodi:namedview
     pagecolor="#ffffff"
     bordercolor="#666666"
     borderopacity="1"
     objecttolerance="10"
     gridtolerance="10"
     guidetolerance="10"
     inkscape:pageopacity="0"
     inkscape:pageshadow="2"
     inkscape:window-width="1851"
     inkscape:window-height="897"
     id="namedview4323"
     showgrid="false"
     inkscape:zoom="1"
     inkscape:cx="-126.92241"
     inkscape:cy="-10.991922"
     inkscape:window-x="1252"
     inkscape:window-y="439"
     inkscape:window-maximized="0"
     inkscape:current-layer="svg4136"
     fit-margin-top="0"
     fit-margin-left="0"
     fit-margin-right="0"
     fit-margin-bottom="0" />
  <!-- Generator: Sketch 49 (51002) - http://www.bohemiancoding.com/sketch -->
  <title
     id="title4138">noia-app-connected</title>
  <desc
     id="desc4140">Created with Sketch.</desc>
  <defs
     id="defs4142">
    <linearGradient
       x1="0.87416375"
       y1="0.44920143"
       x2="-0.031039562"
       y2="0.83273387"
       id="linearGradient-1">
      <stop
         stop-color="#A0F1B3"
         offset="0%"
         id="stop4145" />
      <stop
         stop-color="#232AA2"
         offset="100%"
         id="stop4147" />
    </linearGradient>
    <linearGradient
       x1="120.73012"
       y1="29.774106"
       x2="80.493583"
       y2="68.280454"
       id="linearGradient-2"
       gradientTransform="scale(0.9304408,1.0747594)"
       gradientUnits="userSpaceOnUse">
      <stop
         stop-color="#D3D5F5"
         offset="0%"
         id="stop4150" />
      <stop
         stop-color="#3036A8"
         offset="100%"
         id="stop4152" />
    </linearGradient>
    <rect
       id="path-3"
       x="363"
       y="350"
       width="330"
       height="47"
       rx="4" />
    <filter
       x="-0.077"
       y="-0.35099998"
       width="1.155"
       height="2.085"
       filterUnits="objectBoundingBox"
       id="filter-4">
      <feOffset
         dx="0"
         dy="9"
         in="SourceAlpha"
         result="shadowOffsetOuter1"
         id="feOffset4156" />
      <feGaussianBlur
         stdDeviation="7"
         in="shadowOffsetOuter1"
         result="shadowBlurOuter1"
         id="feGaussianBlur4158" />
      <feColorMatrix
         values="0 0 0 0 0.576470588   0 0 0 0 0.584313725   0 0 0 0 0.701960784  0 0 0 0.279806386 0"
         type="matrix"
         in="shadowBlurOuter1"
         id="feColorMatrix4160" />
    </filter>
    <linearGradient
       inkscape:collect="always"
       xlink:href="#linearGradient-1"
       id="linearGradient5652"
       x1="114.43754"
       y1="58.805352"
       x2="-4.0634162"
       y2="109.01392"
       gradientTransform="scale(1.144934,0.87341279)"
       gradientUnits="userSpaceOnUse" />
    <linearGradient
       inkscape:collect="always"
       xlink:href="#linearGradient-1"
       id="linearGradient5654"
       x1="114.43754"
       y1="58.805352"
       x2="-4.0634162"
       y2="109.01392"
       gradientTransform="scale(1.144934,0.87341279)"
       gradientUnits="userSpaceOnUse" />
    <linearGradient
       inkscape:collect="always"
       xlink:href="#linearGradient-1"
       id="linearGradient5656"
       x1="114.43754"
       y1="58.805352"
       x2="-4.0634162"
       y2="109.01392"
       gradientTransform="scale(1.144934,0.87341279)"
       gradientUnits="userSpaceOnUse" />
  </defs>
  <g
     style="fill:url(#linearGradient5656);fill-rule:evenodd;stroke:none;stroke-width:1"
     id="Group-4">
    <g
       style="fill:url(#linearGradient5654)"
       id="Rectangle-4">
      <path
         style="fill:url(#linearGradient5652)"
         inkscape:connector-curvature="0"
         id="Combined-Shape"
         d="M 75.707466,9.0003168 C 75.638336,9.0001056 75.56918,9 75.5,9 75.057931,9 74.616869,9.00431 74.176854,9.012901 l 0,-9.0129009 1.530612,0 0,9.0003168 z m 6.712646,0.3554017 C 81.913667,9.3033545 81.405535,9.2566742 80.895781,9.2157424 l 0.935892,-8.90442365 1.522228,0.15999254 -0.933789,8.88440721 z m 6.65013,1.0299655 c -0.49879,-0.103417 -0.999625,-0.201247 -1.502438,-0.293422 l 1.84716,-8.6902048 1.497165,0.3182322 -1.841887,8.6653946 z m 6.352755,1.650226 C 94.936809,11.883437 94.448216,11.736396 93.957291,11.594858 L 96.53144,3.1751988 97.995171,3.6227065 95.422997,12.03591 Z m 6.323073,2.344058 c -0.46828,-0.201351 -0.93933,-0.397478 -1.41308,-0.588308 l 3.41343,-8.0415318 1.40893,0.5980578 -3.40928,8.031782 z m 6.05793,2.979605 c -0.4455,-0.248054 -0.89414,-0.491137 -1.34585,-0.729173 l 4.20307,-7.5825444 1.33871,0.7420555 -4.19593,7.5696619 z m 5.73003,3.583728 c -0.41815,-0.292058 -0.83982,-0.579431 -1.26492,-0.862044 l 4.93454,-7.047263 1.25381,0.877923 -4.92343,7.031384 z m 5.34347,4.150407 c -0.38657,-0.332962 -0.777,-0.661553 -1.17123,-0.985696 l 5.59912,-6.441047 1.15516,1.004172 -5.58305,6.422571 z m 4.77811,4.544508 c -0.35194,-0.369433 -0.70809,-0.734821 -1.06837,-1.096087 l 6.08051,-5.871878 1.06325,1.10103 -6.07539,5.866935 z m 4.42224,5.140331 c -0.31279,-0.403276 -0.63012,-0.802856 -0.95191,-1.198664 l 6.60139,-5.157567 0.94234,1.206139 -6.59182,5.150092 z m 3.88266,5.569556 c -0.27023,-0.433114 -0.5453,-0.862894 -0.82514,-1.289263 l 7.03838,-4.398068 0.8111,1.298033 -7.02434,4.389298 z m 3.44055,6.235797 c -0.22234,-0.459742 -0.44982,-0.916537 -0.68236,-1.370309 l 7.57089,-3.589296 0.67098,1.375705 -7.55951,3.5839 z m 2.53265,5.966456 c -0.17629,-0.479455 -0.35795,-0.956317 -0.54491,-1.430513 l 7.6594,-2.787794 0.5235,1.438305 -7.63799,2.780002 z m 1.97182,6.326856 c -0.12735,-0.49485 -0.26025,-0.987472 -0.39863,-1.477794 l 7.80263,-2.090709 0.39615,1.478458 -7.80015,2.090045 z m 1.35649,6.682175 c -0.0758,-0.505549 -0.15724,-1.009236 -0.24433,-1.510994 l 7.92525,-1.255236 0.23944,1.511768 -7.92036,1.254462 z m 0.66474,6.791594 c -0.0238,-0.510883 -0.0534,-1.02026 -0.0887,-1.528066 l 7.96613,-0.417487 0.0801,1.528514 -7.95756,0.417039 z m -0.0269,6.829343 c 0.0277,-0.508252 0.0497,-1.018022 0.066,-1.529249 l 7.91845,0.414983 -0.0801,1.528514 -7.90433,-0.414248 z m -0.72053,6.796887 c 0.0796,-0.502999 0.15357,-1.007873 0.22183,-1.514557 l 7.7812,1.232421 -0.23944,1.511768 -7.76359,-1.229632 z m -1.4169,6.691847 c 0.1312,-0.492308 0.25688,-0.986861 0.37699,-1.483592 l 7.56624,2.027367 -0.39615,1.478458 -7.54708,-2.022233 z m -2.03516,6.3343 c 0.18016,-0.476734 0.355,-0.95608 0.52444,-1.437966 l 7.31997,2.664258 -0.5235,1.4383 -7.32091,-2.664592 z m -2.74884,6.270722 c 0.22856,-0.4557 0.45204,-0.9144 0.67037,-1.376 l 6.98272,3.4057 -0.67097,1.3757 -6.98212,-3.4054 z m -3.01805,5.37799 c 0.26987,-0.43255 0.53491,-0.86843 0.79505,-1.30755 l 6.2294,3.69668 -0.8111,1.29803 -6.21335,-3.68716 z M 17.956457,108.8534 c 0.256354,0.44133 0.51764,0.87944 0.783781,1.31425 l -7.029668,4.17158 -0.811101,-1.29803 7.056988,-4.1878 z m -2.812772,-5.39828 c 0.214916,0.46324 0.435009,0.92358 0.660203,1.38096 l -7.8801333,3.8434 -0.6709762,-1.3757 7.8909065,-3.84866 z m -2.520958,-6.250107 c 0.166657,0.482874 0.338719,0.96323 0.516115,1.440993 l -8.3027256,3.021944 -0.5235003,-1.4383 8.3101109,-3.024637 z m -1.829449,-6.300466 c 0.117946,0.497293 0.241477,0.992425 0.370522,1.485325 L 2.5747889,94.691291 2.1786373,93.212833 10.793278,90.904547 Z M 9.5757378,84.289603 c 0.066933,0.506885 0.1395742,1.011969 0.2178582,1.515186 L 0.94138096,87.206843 0.70194045,85.695075 9.5757378,84.289603 Z M 9.0323023,77.5927 c 0.015804,0.511257 0.037379,1.021061 0.064662,1.529349 L 0.08010606,79.594572 0,78.066058 9.0323021,77.592695 Z m 0.1255985,-6.711525 c -0.034839,0.507826 -0.063977,1.01722 -0.08735,1.528117 L 0,71.933942 0.08010606,70.405428 9.1579008,70.881175 Z m 0.7947843,-6.660767 c -0.085766,0.501977 -0.1659066,1.005874 -0.2403535,1.511623 L 0.70194045,64.304925 0.94138096,62.793157 9.9526851,64.220408 Z M 11.415273,57.67751 c -0.136233,0.490915 -0.266977,0.984114 -0.392161,1.479527 l -8.8444747,-2.36987 0.3961516,-1.478458 8.8404841,2.368801 z m 2.056954,-6.202174 c -0.184193,0.475227 -0.363082,0.953098 -0.536594,1.43354 l -8.6230169,-3.138522 0.5235003,-1.438305 8.6361106,3.143287 z m 2.73416,-6.115109 c -0.231385,0.454295 -0.457703,0.911604 -0.678878,1.371851 l -8.2747305,-4.035855 0.6709762,-1.375706 8.2826323,4.03971 z m 3.335984,-5.805603 c -0.27602,0.428804 -0.547246,0.860986 -0.813602,1.296471 l -7.8293,-4.89229 0.811101,-1.298033 7.831801,4.893852 z m 3.901087,-5.439497 c -0.317685,0.399075 -0.630879,0.801885 -0.939503,1.208355 l -7.289301,-5.695027 0.942339,-1.206139 7.286465,5.692811 z m 4.425189,-5.021041 c -0.356068,0.365411 -0.707966,0.734904 -1.055618,1.108403 l -6.659711,-6.431208 1.063253,-1.10103 6.652076,6.423835 z m 4.777927,-4.447101 c -0.390057,0.329035 -0.776276,0.662476 -1.15858,1.000246 l -6.064227,-6.976094 1.155168,-1.004172 6.067639,6.98002 z m 5.326622,-4.054476 c -0.42114,0.288385 -0.838794,0.581488 -1.252885,0.879235 l -5.293448,-7.559827 1.253804,-0.877923 5.292529,7.558515 z m 5.708672,-3.500816 c -0.448128,0.244638 -0.893131,0.494282 -1.334933,0.748858 l -4.462542,-8.0506399 1.338703,-0.7420555 4.458772,8.0438374 z m 6.035488,-2.908901 c -0.470711,0.198163 -0.938662,0.401589 -1.403781,0.610203 l -3.584608,-8.444809 1.408936,-0.5980578 3.579453,8.4326638 z m 6.302571,-2.284079 c -0.488571,0.149457 -0.974751,0.30439 -1.458468,0.464726 l -2.67231,-8.7407325 1.463732,-0.4475077 2.667046,8.7235142 z m 6.340304,-1.600791 c -0.50112,0.100433 -1.000206,0.206499 -1.497187,0.318129 l -1.890852,-8.8957616 1.497165,-0.3182322 1.890874,8.8958648 z m 6.638608,-0.984186 c -0.508925,0.049378 -1.01617,0.1044933 -1.521671,0.1652794 L 66.53042,0.47131129 68.052647,0.31131875 68.998839,9.313736 Z" />
    </g>
  </g>
  <circle
     style="fill:#e9ebf6;fill-rule:evenodd;stroke:none;stroke-width:1"
     r="9.5"
     cy="72.5"
     cx="75.5"
     id="Oval-2" />
  <path
     style="fill:none;fill-rule:evenodd;stroke:#e9ebf6;stroke-width:1"
     inkscape:connector-curvature="0"
     id="Oval"
     d="M 127.88021,107.68589 C 134.13002,97.842335 137.5,86.421189 137.5,74.5 c 0,-34.241655 -27.75835,-62 -62,-62 -34.241655,0 -62,27.758345 -62,62 0,11.705658 3.248895,22.930744 9.287772,32.65707 l 105.092438,0.52882 z" />
  <path
     style="fill:url(#linearGradient-2);fill-rule:evenodd;stroke:none;stroke-width:1"
     inkscape:connector-curvature="0"
     id="Path-2"
     d="M 73.762321,71.029544 110.75277,32 77.423007,74.678515 c -0.820132,1.050174 -2.336314,1.236659 -3.386487,0.416527 -0.07437,-0.05808 -0.145264,-0.120467 -0.212324,-0.186849 l 0,0 c -1.071833,-1.060984 -1.09932,-2.784015 -0.06188,-3.878649 z" />
</svg>
