<svg xmlns="http://www.w3.org/2000/svg" xmlns:xlink="http://www.w3.org/1999/xlink" width="149.884" height="114.339">
  <defs>
    <linearGradient x1=".874" y1=".449" x2="-.031" y2=".833" id="a">
      <stop stop-color="#A0F1B3" offset="0%"/>
      <stop stop-color="#232AA2" offset="100%"/>
    </linearGradient>
    <linearGradient x1="120.73" y1="29.774" x2="80.494" y2="68.28" id="e" gradientTransform="scale(.93044 1.07476)" gradientUnits="userSpaceOnUse">
      <stop stop-color="#D3D5F5" offset="0%"/>
      <stop stop-color="#3036A8" offset="100%"/>
    </linearGradient>
    <linearGradient xlink:href="#a" id="d" x1="114.438" y1="58.805" x2="-4.063" y2="109.014" gradientTransform="scale(1.14493 .87341)" gradientUnits="userSpaceOnUse"/>
    <linearGradient xlink:href="#a" id="c" x1="114.438" y1="58.805" x2="-4.063" y2="109.014" gradientTransform="scale(1.14493 .87341)" gradientUnits="userSpaceOnUse"/>
    <linearGradient xlink:href="#a" id="b" x1="114.438" y1="58.805" x2="-4.063" y2="109.014" gradientTransform="scale(1.14493 .87341)" gradientUnits="userSpaceOnUse"/>
  </defs>
  <path d="M75.707 9a67.908 67.908 0 0 0-1.53.013V0h1.53v9zm6.713.356a66.834 66.834 0 0 0-1.524-.14L81.832.31l1.522.16-.934 8.885zm6.65 1.03c-.499-.104-1-.202-1.502-.294l1.847-8.69 1.497.318-1.842 8.666zm6.353 1.65c-.486-.153-.975-.3-1.466-.441l2.574-8.42 1.464.448-2.572 8.413zm6.323 2.344a66.1 66.1 0 0 0-1.413-.588l3.413-8.042 1.41.598-3.41 8.032zm6.058 2.98a66.377 66.377 0 0 0-1.346-.73l4.203-7.582L112 9.79l-4.196 7.57zm5.73 3.583c-.418-.292-.84-.58-1.265-.862l4.935-7.047 1.253.878-4.923 7.031zm5.343 4.15a66.88 66.88 0 0 0-1.17-.985l5.598-6.441 1.156 1.004-5.584 6.423zm4.779 4.545c-.352-.37-.708-.735-1.069-1.096l6.08-5.872 1.064 1.101-6.075 5.867zm4.422 5.14c-.313-.403-.63-.802-.952-1.198l6.601-5.158.943 1.206-6.592 5.15zm3.883 5.57c-.27-.433-.546-.863-.826-1.29l7.039-4.397.81 1.298-7.023 4.39zm3.44 6.236c-.222-.46-.45-.917-.682-1.37l7.57-3.59.672 1.376-7.56 3.584zm2.533 5.966c-.177-.48-.358-.956-.545-1.43l7.66-2.788.523 1.438-7.638 2.78zm1.972 6.327c-.128-.495-.26-.987-.4-1.478l7.804-2.09.396 1.478-7.8 2.09zm1.356 6.682a66.462 66.462 0 0 0-.244-1.51l7.925-1.256.24 1.512-7.921 1.254zm.665 6.792c-.024-.51-.054-1.02-.089-1.528l7.966-.418.08 1.529-7.957.417zm-.027 6.83c.028-.509.05-1.019.066-1.53l7.918.415-.08 1.529-7.904-.415zm-.72 6.796c.079-.503.153-1.008.221-1.514l7.781 1.232-.24 1.512-7.763-1.23zm-1.418 6.692c.132-.492.257-.987.377-1.484l7.567 2.028-.396 1.478-7.548-2.022zm-2.035 6.334c.18-.476.355-.956.525-1.438l7.32 2.665-.524 1.438-7.32-2.665zm-2.749 6.271c.229-.456.452-.914.67-1.376l6.984 3.406-.671 1.375-6.983-3.405zm-3.018 5.378c.27-.432.535-.868.795-1.307l6.23 3.696-.811 1.298-6.214-3.687zm-114.004-1.799c.257.442.518.88.784 1.315l-7.03 4.171-.81-1.298 7.056-4.188zm-2.812-5.398c.215.463.435.924.66 1.381l-7.88 3.843-.671-1.375 7.89-3.849zm-2.521-6.25c.166.483.338.963.516 1.441l-8.303 3.022-.523-1.438 8.31-3.025zm-1.83-6.3c.118.497.242.992.37 1.485L2.576 94.69l-.396-1.478 8.614-2.308zM9.576 84.29c.067.506.14 1.012.218 1.515L.94 87.207l-.24-1.512 8.875-1.405zm-.544-6.697c.016.511.038 1.02.065 1.529l-9.017.473L0 78.066l9.032-.473zm.126-6.712a67.192 67.192 0 0 0-.087 1.528L0 71.934l.08-1.529 9.078.476zm.795-6.66a66.345 66.345 0 0 0-.24 1.511L.701 64.305l.24-1.512 9.01 1.427zm1.462-6.543a66 66 0 0 0-.392 1.479l-8.844-2.37.396-1.478 8.84 2.369zm2.057-6.203c-.184.476-.363.953-.536 1.434L4.313 49.77l.523-1.438 8.636 3.143zm2.734-6.115c-.231.455-.457.912-.678 1.372l-8.275-4.036.67-1.375 8.283 4.04zm3.336-5.805c-.276.428-.547.86-.813 1.296l-7.83-4.892.812-1.298 7.831 4.894zm3.901-5.44c-.317.4-.63.802-.939 1.208l-7.29-5.695.943-1.206 7.286 5.693zm4.426-5.02a66.91 66.91 0 0 0-1.056 1.107l-6.66-6.43 1.064-1.102 6.652 6.424zm4.778-4.448c-.39.329-.777.662-1.159 1l-6.064-6.976 1.155-1.004 6.068 6.98zm5.326-4.054c-.42.288-.839.581-1.253.879l-5.293-7.56 1.254-.878 5.292 7.559zm5.709-3.501c-.448.244-.893.494-1.335.749L37.884 9.79l1.34-.742 4.458 8.044zm6.035-2.91c-.47.199-.938.402-1.403.611l-3.585-8.445 1.409-.598 3.58 8.433zM56.02 11.9c-.489.15-.975.304-1.459.464l-2.672-8.74 1.464-.448L56.02 11.9zm6.34-1.601c-.5.1-1 .206-1.497.318l-1.89-8.896 1.496-.318 1.891 8.896zM69 9.314c-.51.05-1.016.104-1.522.165L66.53.471l1.523-.16.946 9.003z" fill="url(#d)" fill-rule="evenodd"/>
  <circle r="9.5" cy="72.5" cx="75.5" fill="#e9ebf6" fill-rule="evenodd"/>
  <path d="M127.88 107.686c6.25-9.844 9.62-21.265 9.62-33.186 0-34.242-27.758-62-62-62-34.242 0-62 27.758-62 62 0 11.706 3.249 22.93 9.288 32.657l105.092.529z" fill="none" stroke="#e9ebf6"/>
  <g transform="translate(76 73)">
    <g transform="rotate(-165 0 0)">
      <g id="gauge-arrow">
        <path transform="translate(-76 -73)" d="M73.762 71.03L110.752 32 77.424 74.679a2.413 2.413 0 0 1-3.599.23 2.773 2.773 0 0 1-.062-3.88z" fill="url(#e)" fill-rule="evenodd"/>
      </g>
    </g>
  </g>
</svg>